<?xml version="1.0" standalone="no"?>
<!DOCTYPE svg PUBLIC "-//W3C//DTD SVG 20010904//EN"
 "http://www.w3.org/TR/2001/REC-SVG-20010904/DTD/svg10.dtd">
<svg version="1.0" xmlns="http://www.w3.org/2000/svg"
 width="860.000000pt" height="1007.000000pt" viewBox="0 0 860.000000 1007.000000"
 preserveAspectRatio="xMidYMid meet">

<g transform="translate(0.000000,1007.000000) scale(0.100000,-0.100000)"
fill="#000000" stroke="none">
<path d="M7396 6970 c-428 -247 -795 -460 -815 -474 -45 -31 -1069 -620 -1136
-654 -46 -23 -382 -216 -1762 -1010 -293 -169 -533 -310 -533 -313 0 -21 114
-173 188 -250 111 -117 231 -206 367 -273 200 -99 363 -136 591 -137 278 0
523 76 753 234 108 74 265 234 337 343 l60 92 525 -304 c288 -168 548 -318
576 -334 l53 -30 -53 -86 c-241 -395 -613 -737 -1038 -958 -1003 -520 -2226
-342 -3051 443 -152 144 -317 348 -416 512 -26 43 -51 78 -56 79 -11 0 -1556
-888 -1574 -905 -18 -16 -4 -43 57 -117 80 -96 151 -144 511 -351 195 -113
787 -454 1315 -757 528 -304 1102 -635 1275 -735 173 -100 342 -196 375 -213
102 -51 190 -73 311 -79 193 -10 296 23 569 181 94 55 823 474 1620 933 798
459 1480 855 1518 880 134 90 233 224 289 388 l23 70 3 1990 c2 1390 -1 2010
-8 2055 -12 70 -69 222 -85 226 -5 2 -361 -199 -789 -446z m-736 -1490 l0
-150 155 0 156 0 -3 -152 -3 -153 -152 -3 -153 -3 0 -149 0 -150 -155 0 -155
0 0 150 0 150 -150 0 -150 0 0 155 0 155 150 0 150 0 0 150 0 150 155 0 155 0
0 -150z m1110 0 l0 -149 153 -3 152 -3 0 -150 0 -150 -152 -3 -153 -3 0 -149
0 -150 -155 0 -155 0 0 150 0 150 -150 0 -150 0 0 155 0 155 150 0 150 0 0
150 0 150 155 0 155 0 0 -150z"/>
</g>
</svg>
