<svg xmlns="http://www.w3.org/2000/svg" viewBox="0 0 228.06 45" fill="currentColor">
  <path d="M36.93,36.15a15.4,15.4,0,0,1-11.23-4.43,15.1,15.1,0,0,1,0-21.46,15.4,15.4,0,0,1,11.23-4.43,14.65,14.65,0,0,1,8.38,2.54l-2,3.13a10.93,10.93,0,0,0-6.4-2.2c-6.85,0-11.23,5.18-11.23,11.45s4.38,11.45,11.23,11.45a10.93,10.93,0,0,0,6.4-2.2l2,3.13A14.65,14.65,0,0,1,36.93,36.15ZM75,35.79,66.5,23.33V35.79H62.06V9.21h5.36L75.9,21.83V9.21h4.44V35.79H75.81V23.49L67,35.79ZM90.23,22.5h10.51v4.07H90.23V35.79H85.79V9.21h14.88v4.07H90.23v5.15h9.8v4.07h-9.8v0ZM118,36.15a8.77,8.77,0,0,1-6.1-2.3,7.69,7.69,0,0,1-2.58-5.84h4.88a3.63,3.63,0,0,0,2.12,3.31,3.42,3.42,0,0,0,3.91-.4.59.59,0,0,0,.18-.42,1,1,0,0,0-.49-.83c-1.29-.87-3.29-1.6-5.88-2.5a12.82,12.82,0,0,1-5.55-3,7.39,7.39,0,0,1-2.48-5.63,8,8,0,0,1,2.94-6.43,9.52,9.52,0,0,1,6.85-2.54,8.13,8.13,0,0,1,6.18,2.44,7.5,7.5,0,0,1,2.3,5.55H119a3.24,3.24,0,0,0-1.84-2.89,3.13,3.13,0,0,0-3.35.22,1,1,0,0,0-.24.71.61.61,0,0,0,.33.57c1.1.75,3,1.48,5.49,2.42a12.19,12.19,0,0,1,5.65,3,7.74,7.74,0,0,1,2.5,5.92,8.44,8.44,0,0,1-3.13,6.79A10.23,10.23,0,0,1,118,36.15ZM150.3,35.79l-8.5-12.46V35.79H137.36V9.21h4.44l8.36,12.62V9.21h4.44V35.79h-4.29ZM171.21,36.15a15.4,15.4,0,0,1-11.23-4.43,15.1,15.1,0,0,1,0-21.46,15.4,15.4,0,0,1,11.23-4.43,14.65,14.65,0,0,1,8.38,2.54l-2,3.13a10.93,10.93,0,0,0-6.4-2.2c-6.85,0-11.23,5.18-11.23,11.45s4.38,11.45,11.23,11.45a10.93,10.93,0,0,0,6.4-2.2l2,3.13A14.65,14.65,0,0,1,171.21,36.15ZM203.11,35.79l-6-9.15h-5.49v9.15H187.18V9.21h10.9a11.58,11.58,0,0,1,8.34,3.13,10.15,10.15,0,0,1,2.52,7.34,9.51,9.51,0,0,1-3.25,7.46l6.83,8.65Zm-11.49-13.2h6.54a7,7,0,0,0,4.86-1.62,5.77,5.77,0,0,0,1.52-4.15,6.13,6.13,0,0,0-1.84-4.59,6.58,6.58,0,0,0-4.7-1.74h-6.38Z"/>
</svg>